<svg id="Шар_1" data-name="Шар 1" xmlns="http://www.w3.org/2000/svg" viewBox="0 0 374.51 134.5"><defs><style>.cls-1{fill:#434341;}</style></defs><path class="cls-1" d="M19.19,80.64H0V70.28H50.45V80.64H31.26v52.72H19.19Z"/><path class="cls-1" d="M43.84,121.49c0-10.07,7.51-12.35,17.58-14.54,8.26-1.61,12.44-2,12.73-4.46V102c0-2.66-2.38-5.13-8.46-5.13s-8.93,3-9.21,7v.67H44.79c.38-10.17,8.36-16.91,21-16.91C78,87.67,85.36,93,85.36,105.15v28.21H74.05v-6.08c-2.85,4.66-8,7.22-14.63,7.22C49.83,134.5,43.84,129.28,43.84,121.49Zm30.31-6.65V111c-2.57,1.52-6.75,2.28-10.45,3.23-4.56,1.14-8,2.66-8,6.65,0,3,2.37,5.13,6.46,5.13C67.78,126.05,73.86,123.2,74.15,114.84Z"/><path class="cls-1" d="M108.12,127.57v5.79H96.63v-64h11.59v24.8a16.63,16.63,0,0,1,13.68-6.56c11.21,0,19.86,8.65,19.86,23v.1c0,14.53-8.55,23.65-20,23.65A16.56,16.56,0,0,1,108.12,127.57ZM129.5,111v-.67c0-8.83-4.37-13.2-10.92-13.2-6.75,0-10.93,5.51-10.93,13.58v.76c0,8.08,4,13.21,10.93,13.21C124.94,124.72,129.5,119.87,129.5,111Z"/><path class="cls-1" d="M150.67,69.43h11.88v63.93H150.67Z"/><path class="cls-1" d="M169.49,111.23c0-13.87,9.31-23.56,22.42-23.56,13.59,0,21.66,9,21.66,23.18v4H181.08c.76,6.46,4.94,10.07,11.31,10.07,6.65,0,9.5-3.14,10.92-6.94l10.26,3.61c-3.13,7.22-9.69,12.54-21.37,12.54C178.23,134.12,169.49,125.19,169.49,111.23Zm32.21-4.56c-.48-6.56-4-9.88-10.07-9.88-5.7,0-9.88,3.61-10.74,9.88Z"/><path class="cls-1" d="M96.35,11.21H77.16V.85h50.45V11.21H108.42V63.94H96.35Z"/><path class="cls-1" d="M120.58,52.06c0-10.07,7.5-12.35,17.57-14.53,8.27-1.62,12.45-2,12.73-4.47v-.47c0-2.66-2.37-5.13-8.45-5.13s-8.93,3-9.22,7v.66H121.53c.38-10.16,8.36-16.91,21-16.91,12.16,0,19.57,5.32,19.57,17.48V63.94h-11.3V57.86c-2.85,4.65-8,7.22-14.63,7.22C126.56,65.08,120.58,59.85,120.58,52.06Zm30.3-6.65v-3.8c-2.56,1.52-6.74,2.28-10.45,3.23-4.56,1.14-8,2.66-8,6.65,0,3,2.38,5.13,6.46,5.13C144.52,56.62,150.6,53.77,150.88,45.41Z"/><path class="cls-1" d="M168.08,41.42c0-13.49,9.21-23.18,22.61-23.18,10.83,0,17.29,5.7,20.33,14.35L199.9,36c-1.33-4.94-3.8-8.17-9.31-8.17-6.55,0-10.73,5.6-10.73,13.49v.38c0,7.88,3.8,13.49,10.35,13.49,6.37,0,8.84-3.23,10.17-8.65l11.11,3.23c-3.13,9.22-9.78,15-21.09,15C176.53,64.79,168.08,55.29,168.08,41.42Z"/><path class="cls-1" d="M220.14,52.06V28.6h-6.37V19.1h6.37V14.5L231.63,4.18V19.1h8.84v9.5h-8.93V50.92c0,2.19,1,3.14,3.23,3.23H240v9.79h-9.12C222.23,63.46,220.33,59.47,220.14,52.06Z"/><path class="cls-1" d="M247.12,1.05h12.25V12.54H247.12Zm.19,18.05h11.87V63.94H247.31Z"/><path class="cls-1" d="M265.83,41.42c0-13.49,9.21-23.18,22.61-23.18,10.83,0,17.29,5.7,20.33,14.35L297.66,36c-1.33-4.94-3.81-8.17-9.32-8.17-6.55,0-10.73,5.6-10.73,13.49v.38c0,7.88,3.8,13.49,10.35,13.49,6.37,0,8.84-3.23,10.17-8.65l11.12,3.23c-3.14,9.22-9.79,15-21.09,15C274.29,64.79,265.83,55.29,265.83,41.42Z"/><path class="cls-1" d="M312.85,52.06c0-10.07,7.51-12.35,17.58-14.53,8.27-1.62,12.45-2,12.73-4.47v-.47c0-2.66-2.37-5.13-8.45-5.13s-8.94,3-9.22,7v.66H313.8c.38-10.16,8.37-16.91,21-16.91,12.16,0,19.57,5.32,19.57,17.48V63.94H343.06V57.86c-2.85,4.65-8,7.22-14.63,7.22C318.84,65.08,312.85,59.85,312.85,52.06Zm30.31-6.65v-3.8c-2.57,1.52-6.74,2.28-10.45,3.23-4.56,1.14-8,2.66-8,6.65,0,3,2.37,5.13,6.46,5.13C336.79,56.62,342.88,53.77,343.16,45.41Z"/><path class="cls-1" d="M362.63,0h11.88V63.94H362.63Z"/><rect class="cls-1" x="7.28" y="62.82" width="2.41" height="1.5" transform="translate(-40.33 21.98) rotate(-41.97)"/><rect class="cls-1" x="4.07" y="65.7" width="2.41" height="1.5" transform="translate(-43.09 20.57) rotate(-41.97)"/><rect class="cls-1" x="0.87" y="68.58" width="2.41" height="1.5" transform="translate(-45.84 19.17) rotate(-41.97)"/><rect class="cls-1" x="16.93" y="54.14" width="2.41" height="1.5" transform="translate(-32.06 26.21) rotate(-41.97)"/><rect class="cls-1" x="13.72" y="57.03" width="2.41" height="1.5" transform="translate(-34.81 24.8) rotate(-41.97)"/><rect class="cls-1" x="10.52" y="59.91" width="2.41" height="1.5" transform="translate(-37.56 23.4) rotate(-41.97)"/><rect class="cls-1" x="26.58" y="45.46" width="2.41" height="1.5" transform="translate(-23.78 30.43) rotate(-41.97)"/><rect class="cls-1" x="23.37" y="48.35" width="2.41" height="1.5" transform="translate(-26.53 29.03) rotate(-41.97)"/><rect class="cls-1" x="20.17" y="51.23" width="2.41" height="1.5" transform="translate(-29.28 27.62) rotate(-41.97)"/><rect class="cls-1" x="36.22" y="36.79" width="2.41" height="1.5" transform="translate(-15.5 34.66) rotate(-41.97)"/><rect class="cls-1" x="33.01" y="39.67" width="2.41" height="1.5" transform="translate(-18.26 33.25) rotate(-41.97)"/><rect class="cls-1" x="29.81" y="42.55" width="2.41" height="1.5" transform="translate(-21 31.85) rotate(-41.97)"/><rect class="cls-1" x="45.87" y="28.11" width="2.41" height="1.5" transform="translate(-7.22 38.89) rotate(-41.97)"/><rect class="cls-1" x="42.66" y="31" width="2.41" height="1.5" transform="translate(-9.98 37.48) rotate(-41.97)"/><rect class="cls-1" x="39.46" y="33.88" width="2.41" height="1.5" transform="translate(-12.73 36.08) rotate(-41.97)"/><rect class="cls-1" x="55.52" y="19.43" width="2.41" height="1.5" transform="translate(1.05 43.11) rotate(-41.97)"/><rect class="cls-1" x="52.31" y="22.32" width="2.41" height="1.5" transform="translate(-1.7 41.7) rotate(-41.97)"/><rect class="cls-1" x="49.11" y="25.2" width="2.41" height="1.5" transform="translate(-4.45 40.3) rotate(-41.97)"/><rect class="cls-1" x="65.17" y="10.76" width="2.41" height="1.5" transform="translate(9.33 47.33) rotate(-41.97)"/><rect class="cls-1" x="61.95" y="13.64" width="2.41" height="1.5" transform="translate(6.58 45.93) rotate(-41.97)"/><rect class="cls-1" x="58.75" y="16.52" width="2.41" height="1.5" transform="translate(3.83 44.52) rotate(-41.97)"/><rect class="cls-1" x="74.81" y="2.08" width="2.41" height="1.5" transform="translate(17.61 51.56) rotate(-41.97)"/><rect class="cls-1" x="71.6" y="4.97" width="2.41" height="1.5" transform="translate(14.85 50.15) rotate(-41.97)"/><rect class="cls-1" x="68.4" y="7.85" width="2.41" height="1.5" transform="translate(12.1 48.75) rotate(-41.97)"/><rect class="cls-1" x="8.82" y="69.83" width="2.41" height="1.5" transform="translate(-44.63 24.81) rotate(-41.97)"/><rect class="cls-1" x="5.61" y="72.72" width="2.41" height="1.5" transform="translate(-47.39 23.4) rotate(-41.97)"/><rect class="cls-1" x="2.4" y="75.6" width="2.41" height="1.5" transform="translate(-50.13 22) rotate(-41.97)"/><rect class="cls-1" x="18.46" y="61.16" width="2.41" height="1.5" transform="translate(-36.36 29.03) rotate(-41.97)"/><rect class="cls-1" x="15.25" y="64.05" width="2.41" height="1.5" transform="translate(-39.11 27.62) rotate(-41.97)"/><rect class="cls-1" x="12.05" y="66.92" width="2.41" height="1.5" transform="translate(-41.86 26.22) rotate(-41.97)"/><rect class="cls-1" x="28.11" y="52.48" width="2.41" height="1.5" transform="translate(-28.08 33.26) rotate(-41.97)"/><rect class="cls-1" x="24.9" y="55.37" width="2.41" height="1.5" transform="translate(-30.83 31.85) rotate(-41.97)"/><rect class="cls-1" x="21.7" y="58.25" width="2.41" height="1.5" transform="translate(-33.58 30.45) rotate(-41.97)"/><rect class="cls-1" x="37.76" y="43.8" width="2.41" height="1.5" transform="translate(-19.8 37.48) rotate(-41.97)"/><rect class="cls-1" x="34.55" y="46.69" width="2.41" height="1.5" transform="translate(-22.56 36.08) rotate(-41.97)"/><rect class="cls-1" x="31.35" y="49.57" width="2.41" height="1.5" transform="translate(-25.3 34.67) rotate(-41.97)"/><rect class="cls-1" x="47.41" y="35.13" width="2.41" height="1.5" transform="translate(-11.52 41.71) rotate(-41.97)"/><rect class="cls-1" x="44.19" y="38.02" width="2.41" height="1.5" transform="translate(-14.28 40.3) rotate(-41.97)"/><rect class="cls-1" x="40.99" y="40.89" width="2.41" height="1.5" transform="translate(-17.03 38.9) rotate(-41.97)"/><rect class="cls-1" x="57.05" y="26.45" width="2.41" height="1.5" transform="translate(-3.25 45.94) rotate(-41.97)"/><rect class="cls-1" x="53.84" y="29.34" width="2.41" height="1.5" transform="translate(-6 44.53) rotate(-41.97)"/><rect class="cls-1" x="50.64" y="32.22" width="2.41" height="1.5" transform="translate(-8.75 43.12) rotate(-41.97)"/><rect class="cls-1" x="66.7" y="17.77" width="2.41" height="1.5" transform="translate(5.03 50.16) rotate(-41.97)"/><rect class="cls-1" x="63.49" y="20.66" width="2.41" height="1.5" transform="translate(2.28 48.76) rotate(-41.97)"/><rect class="cls-1" x="60.29" y="23.54" width="2.41" height="1.5" transform="translate(-0.47 47.35) rotate(-41.97)"/><rect class="cls-1" x="76.35" y="9.1" width="2.41" height="1.5" transform="translate(13.31 54.39) rotate(-41.97)"/><rect class="cls-1" x="73.14" y="11.98" width="2.41" height="1.5" transform="translate(10.55 52.98) rotate(-41.97)"/><rect class="cls-1" x="69.93" y="14.86" width="2.41" height="1.5" transform="translate(7.8 51.58) rotate(-41.97)"/><rect class="cls-1" x="56.86" y="72.07" width="2.41" height="1.5" transform="translate(-33.8 57.51) rotate(-41.97)"/><rect class="cls-1" x="53.65" y="74.96" width="2.41" height="1.5" transform="translate(-36.56 56.1) rotate(-41.97)"/><rect class="cls-1" x="50.44" y="77.83" width="2.41" height="1.5" transform="translate(-39.31 54.7) rotate(-41.97)"/><rect class="cls-1" x="66.5" y="63.39" width="2.41" height="1.5" transform="translate(-25.53 61.73) rotate(-41.97)"/><rect class="cls-1" x="63.29" y="66.28" width="2.41" height="1.5" transform="translate(-28.28 60.32) rotate(-41.97)"/><rect class="cls-1" x="60.09" y="69.16" width="2.41" height="1.5" transform="translate(-31.03 58.92) rotate(-41.97)"/><rect class="cls-1" x="76.15" y="54.71" width="2.41" height="1.5" transform="translate(-17.25 65.95) rotate(-41.97)"/><rect class="cls-1" x="72.94" y="57.6" width="2.41" height="1.5" transform="translate(-20 64.55) rotate(-41.97)"/><rect class="cls-1" x="69.74" y="60.48" width="2.41" height="1.5" transform="translate(-22.75 63.15) rotate(-41.97)"/><rect class="cls-1" x="85.8" y="46.04" width="2.41" height="1.5" transform="translate(-8.97 70.18) rotate(-41.97)"/><rect class="cls-1" x="82.59" y="48.93" width="2.41" height="1.5" transform="translate(-11.73 68.77) rotate(-41.97)"/><rect class="cls-1" x="79.39" y="51.8" width="2.41" height="1.5" transform="translate(-14.47 67.37) rotate(-41.97)"/><rect class="cls-1" x="95.45" y="37.36" width="2.41" height="1.5" transform="translate(-0.69 74.41) rotate(-41.97)"/><rect class="cls-1" x="92.23" y="40.25" width="2.41" height="1.5" transform="translate(-3.45 73) rotate(-41.97)"/><rect class="cls-1" x="89.03" y="43.13" width="2.41" height="1.5" transform="translate(-6.2 71.6) rotate(-41.97)"/><rect class="cls-1" x="105.09" y="28.68" width="2.41" height="1.5" transform="translate(7.58 78.64) rotate(-41.97)"/><rect class="cls-1" x="101.88" y="31.57" width="2.41" height="1.5" transform="translate(4.83 77.22) rotate(-41.97)"/><rect class="cls-1" x="98.68" y="34.45" width="2.41" height="1.5" transform="translate(2.08 75.82) rotate(-41.97)"/><rect class="cls-1" x="114.74" y="20.01" width="2.41" height="1.5" transform="translate(15.86 82.86) rotate(-41.97)"/><rect class="cls-1" x="111.53" y="22.89" width="2.41" height="1.5" transform="translate(13.11 81.46) rotate(-41.97)"/><rect class="cls-1" x="108.33" y="25.77" width="2.41" height="1.5" transform="translate(10.36 80.05) rotate(-41.97)"/><rect class="cls-1" x="124.39" y="11.33" width="2.41" height="1.5" transform="translate(24.13 87.08) rotate(-41.97)"/><rect class="cls-1" x="121.18" y="14.22" width="2.41" height="1.5" transform="translate(21.38 85.68) rotate(-41.97)"/><rect class="cls-1" x="117.97" y="17.1" width="2.41" height="1.5" transform="translate(18.63 84.27) rotate(-41.97)"/><rect class="cls-1" x="48.13" y="71.54" width="2.41" height="1.5" transform="translate(-35.69 51.53) rotate(-41.97)"/><rect class="cls-1" x="44.92" y="74.43" width="2.41" height="1.5" transform="translate(-38.44 50.12) rotate(-41.97)"/><rect class="cls-1" x="41.71" y="77.31" width="2.41" height="1.5" transform="translate(-41.19 48.73) rotate(-41.97)"/><rect class="cls-1" x="57.77" y="62.86" width="2.41" height="1.5" transform="translate(-27.41 55.76) rotate(-41.97)"/><rect class="cls-1" x="54.56" y="65.75" width="2.41" height="1.5" transform="translate(-30.17 54.35) rotate(-41.97)"/><rect class="cls-1" x="51.36" y="68.63" width="2.41" height="1.5" transform="translate(-32.91 52.95) rotate(-41.97)"/><rect class="cls-1" x="67.42" y="54.19" width="2.41" height="1.5" transform="translate(-19.13 59.98) rotate(-41.97)"/><rect class="cls-1" x="64.21" y="57.07" width="2.41" height="1.5" transform="translate(-21.89 58.58) rotate(-41.97)"/><rect class="cls-1" x="61.01" y="59.95" width="2.41" height="1.5" transform="translate(-24.64 57.17) rotate(-41.97)"/><rect class="cls-1" x="77.07" y="45.51" width="2.41" height="1.5" transform="translate(-10.86 64.21) rotate(-41.97)"/><rect class="cls-1" x="73.86" y="48.4" width="2.41" height="1.5" transform="translate(-13.61 62.8) rotate(-41.97)"/><rect class="cls-1" x="70.66" y="51.28" width="2.41" height="1.5" transform="translate(-16.36 61.4) rotate(-41.97)"/><rect class="cls-1" x="86.72" y="36.83" width="2.41" height="1.5" transform="translate(-2.58 68.44) rotate(-41.97)"/><rect class="cls-1" x="83.5" y="39.72" width="2.41" height="1.5" transform="translate(-5.34 67.02) rotate(-41.97)"/><rect class="cls-1" x="80.3" y="42.6" width="2.41" height="1.5" transform="translate(-8.08 65.63) rotate(-41.97)"/><rect class="cls-1" x="96.36" y="28.15" width="2.41" height="1.5" transform="translate(5.7 72.66) rotate(-41.97)"/><rect class="cls-1" x="93.15" y="31.04" width="2.41" height="1.5" transform="translate(2.94 71.25) rotate(-41.97)"/><rect class="cls-1" x="89.95" y="33.92" width="2.41" height="1.5" transform="translate(0.19 69.85) rotate(-41.97)"/><rect class="cls-1" x="106.01" y="19.48" width="2.41" height="1.5" transform="translate(13.97 76.88) rotate(-41.97)"/><rect class="cls-1" x="102.8" y="22.37" width="2.41" height="1.5" transform="translate(11.22 75.48) rotate(-41.97)"/><rect class="cls-1" x="99.6" y="25.25" width="2.41" height="1.5" transform="translate(8.47 74.07) rotate(-41.97)"/><rect class="cls-1" x="115.66" y="10.8" width="2.41" height="1.5" transform="translate(22.25 81.11) rotate(-41.97)"/><rect class="cls-1" x="112.44" y="13.69" width="2.41" height="1.5" transform="translate(19.49 79.7) rotate(-41.97)"/><rect class="cls-1" x="109.24" y="16.57" width="2.41" height="1.5" transform="translate(16.75 78.3) rotate(-41.97)"/></svg>